<svg version="1.1" preserveAspectRatio="none" xmlns="http://www.w3.org/2000/svg" width="500" height="500" viewBox="0 0 500 500"><rect width="100%" height="100%" fill="#2089EF" fill-opacity="1"/><svg viewBox="193.0993 383.286 389.642 324.7566" width="333" height="277.5469477109757" x="83.5px" y="111.2265px" xmlns="http://www.w3.org/2000/svg" xmlns:xlink="http://www.w3.org/1999/xlink" preserveAspectRatio="none"><defs></defs><style>.companyName {fill:#D9F18A;fill-opacity:1;}.icon1 {fill:#FFA2E8;fill-opacity:1;}.icon2 {fill:#FFDEAC;fill-opacity:1;}.icon3 {fill:#89EFCA;fill-opacity:1;}.icon3-str {stroke:#89EFCA;stroke-opacity:1;}</style><g opacity="1" transform="rotate(0 290.5098 383.286)">
<svg width="194.821" height="194.7566" x="290.5098" y="383.286" version="1.1" preserveAspectRatio="none" viewBox="3.4457950592041016 1.9769999980926514 45.92420959472656 45.90900421142578">
  <g transform="matrix(1 0 0 1 0 0)" class="icon1"><g><path d="M24.802,1.977C24.802,1.977,24.801,1.977,24.802,1.977c-0.75,0.049-1.487,0.135-2.214,0.253   c-0.017,0.024-0.033,0.05-0.041,0.074c-0.038,0.134,0.072,0.266,0.289,0.364c0.217,0.1,0.539,0.163,0.91,0.159   c0.369-0.006,0.714-0.077,0.965-0.182c0.253-0.104,0.411-0.238,0.428-0.37C25.149,2.145,25.02,2.044,24.802,1.977z"></path><path d="M28.159,2.646c0.251,0.104,0.596,0.175,0.967,0.18c0.37,0.006,0.691-0.06,0.909-0.157c0.217-0.101,0.33-0.231,0.29-0.364   c-0.004-0.015-0.012-0.029-0.02-0.042c-0.742-0.13-1.494-0.223-2.259-0.277c-0.2,0.067-0.323,0.166-0.312,0.292   C27.748,2.407,27.907,2.543,28.159,2.646z"></path><path d="M19.176,3.537c-0.202-0.121-0.501-0.186-0.858-0.172c-0.495,0.187-0.983,0.387-1.462,0.604   c-0.057,0.07-0.098,0.143-0.121,0.218c-0.074,0.229,0.009,0.438,0.209,0.586c0.201,0.147,0.518,0.233,0.896,0.213   c0.382-0.019,0.752-0.139,1.038-0.309c0.286-0.171,0.49-0.391,0.546-0.612C19.478,3.842,19.377,3.659,19.176,3.537z"></path><path d="M22.532,4.561c0.239,0.151,0.59,0.246,0.99,0.24s0.771-0.113,1.042-0.271s0.44-0.37,0.453-0.589   c0.01-0.219-0.135-0.4-0.376-0.526c-0.239-0.127-0.574-0.197-0.953-0.191c-0.375,0.004-0.729,0.085-0.997,0.218   c-0.27,0.135-0.459,0.324-0.494,0.542C22.164,4.201,22.292,4.409,22.532,4.561z"></path><path d="M29.181,3.22c-0.377-0.004-0.712,0.066-0.951,0.192c-0.242,0.127-0.39,0.309-0.379,0.525   c0.014,0.22,0.184,0.432,0.451,0.591c0.271,0.158,0.643,0.265,1.041,0.271c0.401,0.007,0.754-0.089,0.993-0.24   c0.238-0.15,0.368-0.359,0.333-0.58c-0.031-0.218-0.221-0.406-0.49-0.541C29.91,3.305,29.558,3.225,29.181,3.22z"></path><path d="M35.028,4.983c0.382,0.02,0.697-0.066,0.897-0.215c0.2-0.147,0.285-0.357,0.212-0.584   c-0.011-0.037-0.027-0.072-0.045-0.104c-0.557-0.262-1.121-0.498-1.701-0.714c-0.285,0.01-0.525,0.066-0.695,0.17   c-0.201,0.122-0.305,0.306-0.25,0.526c0.056,0.224,0.258,0.441,0.544,0.611C34.276,4.845,34.647,4.964,35.028,4.983z"></path><path d="M12.033,8.722c0.22-0.053,0.441-0.159,0.645-0.302c0.205-0.142,0.389-0.317,0.534-0.508   c0.146-0.191,0.252-0.398,0.303-0.598c0.075-0.299,0.007-0.525-0.154-0.655c-0.161-0.13-0.419-0.161-0.735-0.073   c-0.108,0.03-0.217,0.072-0.322,0.124c-0.275,0.213-0.546,0.433-0.812,0.657c-0.141,0.179-0.251,0.37-0.31,0.562   c-0.087,0.291-0.039,0.528,0.113,0.674C11.446,8.75,11.705,8.803,12.033,8.722z"></path><path d="M16.329,7.641c0.221,0.191,0.559,0.301,0.96,0.276c0.269-0.02,0.529-0.091,0.76-0.204s0.434-0.267,0.585-0.438   c0.151-0.175,0.253-0.368,0.283-0.567c0.046-0.3-0.076-0.554-0.301-0.726c-0.225-0.173-0.556-0.266-0.942-0.245   c-0.257,0.016-0.509,0.077-0.732,0.178c-0.226,0.101-0.426,0.238-0.578,0.401c-0.152,0.163-0.26,0.354-0.299,0.556   C16.004,7.174,16.107,7.449,16.329,7.641z"></path><path d="M22.555,7.534c0.22,0.095,0.482,0.146,0.768,0.141c0.286-0.005,0.556-0.068,0.789-0.17c0.233-0.104,0.43-0.246,0.568-0.412   c0.139-0.167,0.222-0.356,0.229-0.554c0.009-0.295-0.151-0.55-0.413-0.729c-0.263-0.179-0.626-0.282-1.033-0.274   c-0.271,0.006-0.531,0.059-0.759,0.147c-0.227,0.092-0.421,0.221-0.565,0.376c-0.145,0.154-0.237,0.337-0.255,0.535   c-0.019,0.198,0.038,0.385,0.157,0.548C22.157,7.304,22.337,7.44,22.555,7.534z"></path><path d="M29.401,5.535c-0.408-0.009-0.771,0.096-1.032,0.273c-0.263,0.179-0.425,0.435-0.415,0.729   c0.007,0.195,0.088,0.386,0.229,0.553c0.139,0.166,0.336,0.31,0.568,0.411c0.23,0.104,0.504,0.166,0.786,0.171   c0.284,0.005,0.549-0.047,0.769-0.142c0.221-0.094,0.4-0.229,0.52-0.393S31,6.789,30.979,6.591   c-0.019-0.197-0.109-0.38-0.254-0.535c-0.143-0.155-0.338-0.284-0.566-0.375C29.933,5.593,29.674,5.539,29.401,5.535z"></path><path d="M35.194,5.733c-0.387-0.021-0.719,0.071-0.945,0.245c-0.225,0.173-0.344,0.424-0.3,0.725   c0.03,0.198,0.132,0.394,0.28,0.567c0.151,0.173,0.354,0.326,0.588,0.438c0.229,0.113,0.49,0.187,0.759,0.203   c0.401,0.022,0.741-0.084,0.963-0.276s0.325-0.467,0.267-0.77c-0.041-0.201-0.146-0.393-0.301-0.556   c-0.152-0.164-0.352-0.301-0.576-0.4C35.704,5.809,35.452,5.748,35.194,5.733z"></path><path d="M39.72,7.912c0.146,0.189,0.33,0.366,0.533,0.508c0.204,0.143,0.426,0.248,0.645,0.302c0.328,0.08,0.586,0.028,0.74-0.118   c0.152-0.146,0.2-0.382,0.112-0.673c-0.015-0.052-0.034-0.103-0.058-0.152c-0.471-0.422-0.961-0.825-1.469-1.208   c-0.277-0.061-0.506-0.028-0.652,0.09c-0.162,0.13-0.229,0.356-0.153,0.655C39.469,7.514,39.574,7.721,39.72,7.912z"></path><path d="M7.949,11.119c-0.548,0.729-1.054,1.49-1.514,2.283c0.103,0.066,0.245,0.079,0.421,0.023   c0.17-0.052,0.348-0.159,0.517-0.306c0.169-0.147,0.328-0.33,0.459-0.534c0.129-0.201,0.231-0.425,0.288-0.645   c0.082-0.327,0.046-0.586-0.073-0.734C8.02,11.172,7.986,11.142,7.949,11.119z"></path><path d="M11.27,12.438c0.232-0.039,0.466-0.141,0.678-0.287c0.211-0.146,0.4-0.336,0.546-0.551   c0.144-0.215,0.248-0.453,0.287-0.692c0.062-0.359-0.028-0.651-0.215-0.832c-0.185-0.181-0.468-0.25-0.801-0.177   c-0.225,0.051-0.444,0.156-0.644,0.302c-0.199,0.146-0.378,0.328-0.52,0.532c-0.143,0.204-0.247,0.43-0.298,0.657   c-0.076,0.342-0.012,0.63,0.161,0.821C10.639,12.402,10.919,12.495,11.27,12.438z"></path><path d="M16.087,11.657c0.207,0.103,0.459,0.15,0.738,0.131c0.277-0.021,0.547-0.109,0.785-0.244   c0.236-0.135,0.442-0.316,0.595-0.525c0.151-0.209,0.249-0.444,0.273-0.688c0.023-0.244-0.029-0.465-0.144-0.647   c-0.11-0.184-0.278-0.329-0.487-0.427c-0.209-0.095-0.458-0.141-0.728-0.123c-0.272,0.018-0.533,0.098-0.763,0.225   c-0.231,0.125-0.432,0.299-0.583,0.5c-0.151,0.204-0.253,0.437-0.282,0.683c-0.03,0.246,0.014,0.476,0.117,0.668   C15.713,11.398,15.878,11.556,16.087,11.657z"></path><path d="M22.339,11.321c0.234,0.112,0.514,0.172,0.812,0.165c0.301-0.007,0.582-0.081,0.827-0.202   c0.246-0.123,0.451-0.294,0.598-0.493c0.146-0.2,0.231-0.433,0.235-0.672c0.005-0.24-0.068-0.461-0.204-0.647   c-0.134-0.187-0.325-0.34-0.557-0.443c-0.231-0.104-0.5-0.16-0.789-0.154c-0.291,0.005-0.566,0.072-0.807,0.188   c-0.238,0.114-0.441,0.275-0.59,0.469c-0.15,0.193-0.242,0.42-0.258,0.66c-0.015,0.241,0.051,0.469,0.18,0.663   S22.105,11.209,22.339,11.321z"></path><path d="M30.401,9.059c-0.238-0.114-0.514-0.183-0.803-0.188c-0.291-0.007-0.561,0.051-0.791,0.154   c-0.23,0.104-0.424,0.257-0.559,0.443c-0.134,0.188-0.21,0.407-0.204,0.648c0.006,0.239,0.089,0.47,0.235,0.671   c0.146,0.198,0.351,0.37,0.596,0.491c0.245,0.123,0.53,0.196,0.83,0.204c0.301,0.006,0.578-0.056,0.812-0.167   c0.234-0.109,0.426-0.273,0.553-0.468c0.129-0.195,0.193-0.422,0.178-0.664c-0.012-0.241-0.105-0.467-0.253-0.66   C30.847,9.333,30.642,9.173,30.401,9.059z"></path><path d="M35.745,9.129c-0.271-0.019-0.52,0.028-0.729,0.126c-0.209,0.096-0.379,0.242-0.49,0.425   c-0.112,0.185-0.164,0.403-0.143,0.647c0.023,0.241,0.12,0.479,0.271,0.688c0.152,0.208,0.357,0.392,0.598,0.525   c0.236,0.135,0.507,0.223,0.785,0.243c0.277,0.02,0.529-0.029,0.738-0.133c0.209-0.103,0.373-0.259,0.478-0.449   c0.104-0.192,0.147-0.42,0.119-0.666c-0.029-0.246-0.132-0.479-0.284-0.683c-0.148-0.202-0.352-0.375-0.582-0.501   C36.276,9.227,36.017,9.147,35.745,9.129z"></path><path d="M40.365,10.074c-0.185,0.181-0.274,0.473-0.214,0.832c0.039,0.239,0.143,0.479,0.287,0.692   c0.146,0.214,0.336,0.405,0.547,0.551c0.211,0.146,0.443,0.248,0.677,0.287c0.353,0.059,0.634-0.037,0.805-0.227   c0.173-0.191,0.236-0.479,0.163-0.821c-0.051-0.229-0.154-0.453-0.298-0.657s-0.322-0.387-0.521-0.532   c-0.199-0.146-0.418-0.251-0.645-0.302C40.833,9.824,40.551,9.895,40.365,10.074z"></path><path d="M45.56,13.121c0.17,0.146,0.348,0.254,0.517,0.306c0.088,0.028,0.165,0.037,0.235,0.033   c-0.44-0.767-0.927-1.502-1.449-2.21c-0.098,0.154-0.125,0.393-0.049,0.692c0.056,0.22,0.155,0.44,0.287,0.645   C45.231,12.79,45.392,12.975,45.56,13.121z"></path><path d="M6.523,17.742c0.164-0.035,0.328-0.138,0.475-0.287c0.145-0.15,0.274-0.351,0.37-0.576   c0.097-0.228,0.157-0.479,0.172-0.738c0.019-0.389-0.074-0.713-0.237-0.92c-0.164-0.208-0.395-0.298-0.646-0.229   c-0.252,0.068-0.478,0.284-0.639,0.572c-0.164,0.287-0.27,0.647-0.284,1.019c-0.017,0.371,0.058,0.685,0.196,0.895   C6.07,17.687,6.275,17.794,6.523,17.742z"></path><path d="M10.267,16.952c0.174,0.107,0.384,0.158,0.614,0.133s0.456-0.123,0.656-0.276c0.199-0.151,0.374-0.356,0.502-0.595   c0.13-0.236,0.213-0.505,0.232-0.78s-0.029-0.524-0.13-0.729c-0.099-0.205-0.249-0.366-0.433-0.469   c-0.184-0.101-0.401-0.143-0.636-0.108c-0.234,0.034-0.457,0.137-0.649,0.29C10.234,14.569,10.07,14.771,9.952,15   c-0.119,0.229-0.193,0.489-0.211,0.758c-0.017,0.269,0.027,0.513,0.119,0.717C9.954,16.679,10.093,16.844,10.267,16.952z"></path><path d="M15.731,16.479c0.223,0.124,0.485,0.19,0.771,0.176c0.289-0.013,0.563-0.104,0.803-0.254   c0.24-0.147,0.446-0.354,0.596-0.595c0.148-0.24,0.239-0.517,0.254-0.806c0.014-0.287-0.053-0.551-0.177-0.772   c-0.124-0.221-0.31-0.398-0.53-0.518c-0.222-0.116-0.484-0.174-0.766-0.155c-0.282,0.021-0.55,0.113-0.782,0.261   c-0.235,0.147-0.435,0.348-0.581,0.581s-0.238,0.501-0.259,0.785c-0.019,0.281,0.039,0.544,0.157,0.768   C15.334,16.171,15.513,16.354,15.731,16.479z"></path><path d="M22.197,16.247c0.246,0.136,0.534,0.211,0.844,0.208c0.309-0.006,0.603-0.09,0.854-0.235   c0.252-0.145,0.463-0.348,0.61-0.588c0.15-0.24,0.235-0.52,0.238-0.812c0.003-0.295-0.077-0.564-0.222-0.797   c-0.143-0.23-0.346-0.422-0.59-0.552c-0.244-0.132-0.527-0.203-0.832-0.196c-0.306,0.007-0.592,0.091-0.838,0.23   c-0.247,0.141-0.457,0.338-0.606,0.573c-0.15,0.235-0.241,0.511-0.248,0.802c-0.01,0.291,0.066,0.564,0.205,0.8   C21.752,15.915,21.953,16.11,22.197,16.247z"></path><path d="M30.595,13.503c-0.248-0.142-0.533-0.225-0.84-0.231c-0.304-0.006-0.587,0.066-0.831,0.198   c-0.245,0.13-0.45,0.319-0.592,0.551c-0.144,0.232-0.224,0.504-0.222,0.798s0.089,0.572,0.238,0.813   c0.147,0.239,0.358,0.443,0.61,0.588c0.252,0.146,0.544,0.229,0.854,0.233c0.311,0.003,0.598-0.072,0.843-0.208   c0.245-0.138,0.446-0.332,0.585-0.567c0.14-0.234,0.214-0.509,0.207-0.8c-0.01-0.293-0.098-0.565-0.249-0.802   C31.052,13.841,30.843,13.644,30.595,13.503z"></path><path d="M36.965,13.81c-0.235-0.146-0.502-0.24-0.784-0.259c-0.281-0.021-0.543,0.038-0.768,0.156   c-0.225,0.117-0.407,0.295-0.532,0.518c-0.124,0.22-0.19,0.484-0.178,0.772c0.014,0.289,0.104,0.563,0.255,0.805   c0.148,0.242,0.354,0.446,0.596,0.596c0.239,0.149,0.516,0.24,0.805,0.254c0.287,0.015,0.551-0.053,0.772-0.177   c0.22-0.124,0.397-0.309,0.515-0.531c0.119-0.223,0.176-0.483,0.158-0.767c-0.019-0.283-0.111-0.552-0.26-0.785   C37.397,14.157,37.196,13.957,36.965,13.81z"></path><path d="M42.506,14.416c-0.192-0.153-0.413-0.256-0.647-0.29c-0.234-0.033-0.45,0.009-0.637,0.108   c-0.184,0.103-0.332,0.264-0.432,0.469c-0.102,0.205-0.146,0.454-0.129,0.729c0.02,0.275,0.104,0.544,0.23,0.78   c0.131,0.237,0.305,0.441,0.504,0.595s0.422,0.251,0.655,0.276c0.231,0.025,0.44-0.024,0.614-0.133   c0.174-0.109,0.312-0.273,0.402-0.479c0.094-0.205,0.137-0.448,0.121-0.717c-0.017-0.271-0.092-0.528-0.211-0.758   C42.858,14.767,42.698,14.568,42.506,14.416z"></path><path d="M45.63,15.221c-0.164,0.207-0.258,0.531-0.236,0.92c0.013,0.259,0.075,0.512,0.17,0.738   c0.097,0.227,0.226,0.426,0.371,0.576c0.146,0.149,0.31,0.252,0.477,0.287c0.246,0.052,0.453-0.057,0.593-0.266   c0.138-0.211,0.213-0.523,0.196-0.896c-0.018-0.37-0.12-0.73-0.282-1.019c-0.164-0.288-0.39-0.504-0.642-0.572   C46.024,14.923,45.792,15.013,45.63,15.221z"></path><path d="M3.581,22.695c0.051,0.118,0.119,0.18,0.202,0.163c0.111-0.021,0.23-0.185,0.322-0.438   c0.094-0.253,0.159-0.594,0.163-0.956c0.006-0.362-0.05-0.675-0.137-0.88c-0.087-0.206-0.203-0.308-0.316-0.258   c-0.006,0.002-0.01,0.006-0.016,0.01c-0.096,0.47-0.175,0.947-0.241,1.428c-0.026,0.181-0.049,0.36-0.069,0.542   c0.014,0.091,0.026,0.176,0.044,0.248C3.549,22.608,3.564,22.654,3.581,22.695z"></path><path d="M6.397,22.571c0.246-0.018,0.481-0.195,0.66-0.476c0.177-0.279,0.294-0.658,0.304-1.067   c0.009-0.404-0.094-0.762-0.262-1.004c-0.167-0.239-0.396-0.367-0.643-0.329s-0.461,0.233-0.613,0.513   c-0.153,0.278-0.247,0.641-0.255,1.025c-0.006,0.388,0.074,0.729,0.217,0.971C5.949,22.444,6.155,22.59,6.397,22.571z"></path><path d="M10.087,22.158c0.177,0.129,0.386,0.199,0.615,0.189c0.23-0.009,0.448-0.096,0.641-0.242   c0.194-0.146,0.358-0.351,0.478-0.594c0.118-0.242,0.191-0.521,0.199-0.815c0.008-0.294-0.049-0.564-0.155-0.793   c-0.105-0.228-0.261-0.411-0.444-0.534c-0.188-0.12-0.404-0.182-0.635-0.161c-0.23,0.019-0.444,0.113-0.63,0.264   c-0.183,0.149-0.337,0.354-0.445,0.588c-0.109,0.236-0.176,0.507-0.184,0.79c-0.006,0.284,0.046,0.547,0.143,0.771   C9.768,21.846,9.911,22.031,10.087,22.158z"></path><path d="M15.546,21.988c0.229,0.142,0.499,0.222,0.792,0.217s0.57-0.094,0.811-0.241c0.24-0.15,0.444-0.361,0.588-0.612   c0.146-0.252,0.231-0.542,0.238-0.85c0.005-0.31-0.067-0.593-0.203-0.837c-0.135-0.242-0.329-0.44-0.562-0.577   c-0.231-0.136-0.505-0.208-0.795-0.198c-0.291,0.01-0.563,0.101-0.798,0.251c-0.235,0.15-0.433,0.359-0.573,0.605   c-0.141,0.248-0.227,0.531-0.234,0.834c-0.01,0.302,0.061,0.584,0.189,0.827C15.128,21.648,15.315,21.848,15.546,21.988z"></path><path d="M22.126,21.909c0.251,0.146,0.545,0.229,0.859,0.229c0.313-0.001,0.61-0.087,0.866-0.237   c0.255-0.148,0.468-0.362,0.617-0.616c0.151-0.255,0.238-0.551,0.239-0.862c0.001-0.313-0.085-0.605-0.231-0.856   c-0.147-0.25-0.357-0.457-0.608-0.601c-0.252-0.146-0.544-0.225-0.856-0.223c-0.312,0.004-0.604,0.091-0.858,0.239   c-0.252,0.148-0.463,0.36-0.614,0.611c-0.147,0.25-0.236,0.543-0.238,0.854c-0.005,0.312,0.076,0.604,0.22,0.854   C21.666,21.554,21.874,21.763,22.126,21.909z"></path><path d="M30.701,18.981c-0.253-0.147-0.546-0.234-0.857-0.238c-0.312-0.003-0.606,0.077-0.858,0.223   c-0.25,0.143-0.461,0.351-0.607,0.601s-0.232,0.542-0.23,0.856c0.002,0.312,0.086,0.607,0.238,0.862   c0.149,0.254,0.362,0.468,0.617,0.616c0.257,0.15,0.553,0.236,0.866,0.237s0.608-0.082,0.86-0.229   c0.25-0.146,0.459-0.357,0.604-0.608c0.144-0.25,0.226-0.542,0.222-0.853c-0.002-0.313-0.092-0.605-0.24-0.854   C31.165,19.342,30.952,19.129,30.701,18.981z"></path><path d="M37.242,19.137c-0.233-0.15-0.507-0.24-0.8-0.251c-0.289-0.01-0.562,0.062-0.793,0.198   c-0.235,0.138-0.428,0.336-0.564,0.579c-0.133,0.243-0.209,0.526-0.203,0.837c0.008,0.307,0.094,0.597,0.237,0.849   c0.146,0.251,0.35,0.463,0.591,0.612c0.241,0.148,0.518,0.237,0.811,0.242c0.295,0.004,0.566-0.075,0.795-0.217   c0.229-0.14,0.418-0.341,0.547-0.583c0.13-0.241,0.199-0.524,0.191-0.826c-0.009-0.304-0.094-0.587-0.236-0.834   C37.677,19.495,37.479,19.286,37.242,19.137z"></path><path d="M42.774,19.472c-0.185-0.15-0.396-0.244-0.629-0.264c-0.231-0.021-0.447,0.039-0.631,0.161   c-0.188,0.122-0.343,0.308-0.449,0.534c-0.104,0.229-0.162,0.499-0.152,0.792c0.008,0.296,0.079,0.574,0.199,0.816   c0.119,0.243,0.283,0.448,0.476,0.594c0.19,0.146,0.413,0.234,0.644,0.242c0.229,0.01,0.438-0.062,0.612-0.189   c0.179-0.127,0.32-0.312,0.419-0.538c0.098-0.225,0.15-0.487,0.143-0.771s-0.072-0.554-0.182-0.79   C43.112,19.824,42.96,19.62,42.774,19.472z"></path><path d="M46.476,19.695c-0.244-0.038-0.479,0.09-0.645,0.329c-0.166,0.242-0.27,0.599-0.26,1.004   c0.01,0.408,0.127,0.788,0.304,1.067c0.179,0.279,0.414,0.459,0.657,0.476c0.244,0.02,0.451-0.127,0.594-0.367   c0.143-0.242,0.225-0.584,0.216-0.971c-0.005-0.386-0.1-0.747-0.253-1.025C46.937,19.929,46.722,19.733,46.476,19.695z"></path><path d="M49.149,22.859c0.045,0.011,0.086-0.008,0.125-0.046c-0.075-0.82-0.192-1.632-0.354-2.427   c-0.045,0.046-0.085,0.111-0.12,0.197c-0.087,0.206-0.145,0.519-0.138,0.881c0.006,0.362,0.07,0.703,0.163,0.956   C48.918,22.674,49.037,22.837,49.149,22.859z"></path><path d="M4.104,27.126c0.088-0.222,0.146-0.544,0.144-0.908c-0.001-0.365-0.063-0.7-0.153-0.939   c-0.091-0.238-0.208-0.383-0.319-0.383c-0.109,0-0.193,0.14-0.248,0.357c0,0.002-0.001,0.004-0.001,0.004   c-0.054,0.223-0.084,0.522-0.081,0.861c0.001,0.214,0.015,0.415,0.038,0.596c0.014,0.104,0.029,0.205,0.05,0.293   c0.058,0.24,0.143,0.406,0.255,0.434C3.899,27.467,4.015,27.349,4.104,27.126z"></path><path d="M6.408,27.795c0.243,0.021,0.474-0.121,0.644-0.377c0.169-0.255,0.276-0.622,0.273-1.033   c-0.003-0.411-0.116-0.788-0.29-1.058c-0.172-0.271-0.406-0.434-0.649-0.434c-0.244,0-0.452,0.16-0.597,0.417   c-0.146,0.256-0.231,0.605-0.228,0.994c0.003,0.39,0.091,0.749,0.24,1.019C5.951,27.593,6.162,27.773,6.408,27.795z"></path><path d="M10.091,27.825c0.182,0.145,0.394,0.232,0.621,0.244c0.229,0.012,0.448-0.058,0.635-0.188   c0.188-0.13,0.344-0.323,0.455-0.558c0.109-0.235,0.171-0.513,0.168-0.811c-0.005-0.299-0.072-0.579-0.186-0.82   c-0.116-0.24-0.276-0.44-0.464-0.581c-0.192-0.141-0.41-0.219-0.64-0.219c-0.229,0-0.438,0.078-0.617,0.215   c-0.178,0.137-0.324,0.329-0.424,0.561c-0.102,0.23-0.158,0.499-0.156,0.785c0.003,0.288,0.065,0.559,0.169,0.794   C9.76,27.481,9.909,27.682,10.091,27.825z"></path><path d="M15.549,28.007c0.234,0.147,0.507,0.236,0.799,0.243c0.293,0.005,0.567-0.073,0.805-0.216   c0.236-0.142,0.434-0.348,0.572-0.596c0.138-0.248,0.216-0.54,0.214-0.851c-0.003-0.312-0.084-0.605-0.228-0.857   c-0.141-0.251-0.342-0.462-0.583-0.607c-0.238-0.146-0.517-0.23-0.808-0.23c-0.295,0-0.566,0.083-0.799,0.229   c-0.231,0.145-0.426,0.352-0.559,0.598c-0.134,0.246-0.207,0.534-0.204,0.84c0.004,0.307,0.082,0.594,0.222,0.842   C15.118,27.649,15.315,27.858,15.549,28.007z"></path><path d="M22.128,28.092c0.253,0.15,0.547,0.237,0.861,0.237c0.312,0.003,0.608-0.082,0.862-0.229   c0.255-0.146,0.466-0.358,0.614-0.613c0.149-0.255,0.233-0.552,0.233-0.867c0-0.317-0.084-0.615-0.234-0.871   c-0.151-0.257-0.364-0.472-0.619-0.621c-0.255-0.149-0.551-0.234-0.867-0.234c-0.314,0-0.609,0.085-0.862,0.234   c-0.251,0.149-0.462,0.361-0.609,0.616c-0.146,0.253-0.23,0.549-0.23,0.864c0.002,0.314,0.088,0.61,0.237,0.866   C21.663,27.728,21.872,27.942,22.128,28.092z"></path><path d="M30.737,25.127c-0.252-0.149-0.549-0.234-0.864-0.234c-0.313,0-0.61,0.085-0.865,0.234c-0.255,0.15-0.469,0.364-0.62,0.621   c-0.146,0.256-0.234,0.554-0.234,0.87s0.086,0.613,0.234,0.868s0.359,0.466,0.614,0.613c0.254,0.146,0.549,0.231,0.864,0.229   c0.312,0,0.607-0.087,0.861-0.237c0.252-0.149,0.465-0.364,0.611-0.617c0.148-0.255,0.235-0.551,0.237-0.866   c0.001-0.315-0.083-0.61-0.229-0.864C31.2,25.49,30.991,25.277,30.737,25.127z"></path><path d="M37.339,25.121c-0.232-0.146-0.506-0.229-0.8-0.229c-0.292,0-0.57,0.083-0.812,0.229c-0.24,0.146-0.439,0.357-0.582,0.608   c-0.143,0.252-0.226,0.546-0.228,0.857c-0.002,0.311,0.075,0.604,0.215,0.852c0.138,0.248,0.337,0.453,0.573,0.597   c0.236,0.143,0.51,0.221,0.805,0.215c0.293-0.006,0.565-0.096,0.801-0.242c0.234-0.15,0.432-0.359,0.569-0.606   c0.138-0.249,0.218-0.536,0.222-0.844c0.004-0.306-0.074-0.594-0.207-0.84S37.571,25.267,37.339,25.121z"></path><path d="M42.868,25.107c-0.178-0.136-0.389-0.214-0.619-0.214c-0.229,0-0.445,0.078-0.637,0.219   c-0.189,0.141-0.353,0.341-0.465,0.581c-0.114,0.241-0.184,0.521-0.186,0.819c-0.004,0.298,0.059,0.576,0.168,0.812   c0.107,0.233,0.268,0.428,0.455,0.558c0.186,0.132,0.402,0.199,0.633,0.188c0.229-0.011,0.441-0.1,0.622-0.243   c0.183-0.146,0.332-0.345,0.437-0.578c0.104-0.235,0.168-0.506,0.17-0.794c0.003-0.286-0.053-0.555-0.152-0.785   C43.19,25.438,43.046,25.244,42.868,25.107z"></path><path d="M46.547,24.895c-0.243,0-0.478,0.162-0.649,0.434c-0.174,0.27-0.285,0.646-0.289,1.058   c-0.004,0.41,0.102,0.777,0.271,1.032c0.169,0.257,0.401,0.398,0.646,0.379c0.242-0.022,0.453-0.203,0.604-0.473   c0.148-0.27,0.238-0.629,0.242-1.019c0.002-0.389-0.081-0.738-0.227-0.994C47,25.055,46.79,24.895,46.547,24.895z"></path><path d="M49.157,24.896c-0.11,0-0.229,0.146-0.318,0.383c-0.09,0.24-0.152,0.574-0.154,0.938c-0.002,0.365,0.058,0.688,0.146,0.909   c0.086,0.223,0.201,0.341,0.314,0.313c0.035-0.009,0.067-0.033,0.1-0.068c0.04-0.395,0.072-0.79,0.095-1.19   c0.013-0.251,0.021-0.504,0.027-0.758c0.001-0.096,0.002-0.192,0.003-0.288C49.317,24.986,49.245,24.896,49.157,24.896z"></path><path d="M3.843,29.749c0.134,0.619,0.29,1.229,0.47,1.829c0.012-0.113,0.019-0.233,0.016-0.366   c-0.008-0.356-0.08-0.704-0.176-0.972C4.062,29.991,3.951,29.814,3.843,29.749z"></path><path d="M7.217,32.942c0.163-0.22,0.26-0.556,0.244-0.952c-0.017-0.396-0.143-0.775-0.325-1.063   c-0.184-0.289-0.424-0.486-0.67-0.525C6.22,30.36,6.015,30.48,5.873,30.702c-0.14,0.223-0.218,0.546-0.203,0.923   c0.014,0.378,0.113,0.74,0.272,1.026c0.16,0.286,0.379,0.494,0.629,0.556C6.82,33.265,7.053,33.161,7.217,32.942z"></path><path d="M10.311,33.668c0.19,0.152,0.408,0.256,0.641,0.284c0.233,0.027,0.451-0.021,0.635-0.127   c0.185-0.108,0.336-0.278,0.438-0.493c0.101-0.213,0.151-0.473,0.138-0.756c-0.016-0.284-0.095-0.559-0.221-0.799   s-0.296-0.447-0.494-0.599c-0.196-0.15-0.418-0.247-0.649-0.267c-0.229-0.021-0.438,0.038-0.615,0.152   c-0.174,0.116-0.313,0.288-0.407,0.501c-0.093,0.213-0.14,0.466-0.127,0.739c0.015,0.276,0.085,0.54,0.201,0.773   C9.963,33.313,10.122,33.517,10.311,33.668z"></path><path d="M15.78,34.185c0.234,0.149,0.505,0.243,0.787,0.259c0.288,0.018,0.554-0.047,0.779-0.172   c0.227-0.126,0.415-0.311,0.542-0.54c0.129-0.23,0.198-0.504,0.187-0.801c-0.01-0.296-0.1-0.579-0.247-0.825   s-0.353-0.455-0.595-0.605c-0.24-0.149-0.518-0.239-0.807-0.25c-0.29-0.011-0.557,0.061-0.78,0.189   c-0.225,0.132-0.406,0.322-0.527,0.554c-0.123,0.23-0.185,0.502-0.17,0.794c0.015,0.291,0.107,0.564,0.252,0.807   C15.347,33.831,15.546,34.036,15.78,34.185z"></path><path d="M22.216,34.442c0.25,0.146,0.54,0.23,0.848,0.235c0.307,0.005,0.596-0.07,0.842-0.207c0.247-0.135,0.454-0.333,0.599-0.571   c0.144-0.239,0.227-0.521,0.224-0.822c-0.002-0.304-0.088-0.589-0.236-0.836c-0.151-0.246-0.362-0.454-0.617-0.602   c-0.252-0.147-0.548-0.232-0.858-0.237c-0.312-0.004-0.605,0.076-0.852,0.218c-0.248,0.141-0.452,0.343-0.594,0.584   c-0.14,0.241-0.216,0.522-0.21,0.824c0.007,0.301,0.096,0.582,0.245,0.824C21.756,34.096,21.967,34.297,22.216,34.442z"></path><path d="M30.69,31.62c-0.248-0.141-0.539-0.223-0.853-0.219c-0.312,0.006-0.604,0.092-0.858,0.237   c-0.254,0.147-0.467,0.355-0.615,0.604c-0.15,0.245-0.235,0.53-0.237,0.836c-0.003,0.302,0.079,0.583,0.226,0.82   c0.144,0.239,0.351,0.438,0.599,0.573c0.245,0.137,0.534,0.211,0.843,0.206c0.309-0.004,0.6-0.091,0.848-0.235   s0.459-0.348,0.608-0.59c0.151-0.242,0.24-0.521,0.247-0.824c0.007-0.299-0.071-0.583-0.212-0.823   C31.144,31.963,30.938,31.762,30.69,31.62z"></path><path d="M37.216,31.443c-0.225-0.132-0.492-0.201-0.781-0.191c-0.289,0.011-0.567,0.101-0.812,0.251   c-0.24,0.149-0.444,0.358-0.595,0.604c-0.146,0.246-0.234,0.528-0.246,0.826c-0.012,0.296,0.059,0.57,0.188,0.8   s0.315,0.417,0.543,0.541c0.229,0.126,0.493,0.189,0.779,0.173c0.286-0.016,0.557-0.108,0.791-0.258   c0.234-0.148,0.436-0.353,0.579-0.594c0.146-0.24,0.233-0.515,0.25-0.806c0.015-0.292-0.046-0.562-0.167-0.794   C37.623,31.765,37.438,31.573,37.216,31.443z"></path><path d="M42.748,31.066c-0.174-0.114-0.383-0.174-0.614-0.152c-0.229,0.02-0.453,0.115-0.65,0.267   c-0.195,0.15-0.366,0.357-0.491,0.599c-0.124,0.24-0.204,0.515-0.222,0.799c-0.015,0.283,0.037,0.543,0.14,0.756   c0.101,0.215,0.252,0.385,0.437,0.493s0.401,0.155,0.635,0.127c0.232-0.028,0.453-0.132,0.642-0.284   c0.188-0.151,0.349-0.354,0.463-0.588c0.115-0.234,0.188-0.497,0.2-0.773c0.013-0.273-0.033-0.525-0.128-0.739   C43.063,31.354,42.923,31.181,42.748,31.066z"></path><path d="M46.467,30.4c-0.245,0.04-0.487,0.236-0.67,0.525c-0.185,0.287-0.31,0.667-0.325,1.062   c-0.018,0.397,0.079,0.733,0.245,0.953c0.162,0.22,0.394,0.322,0.644,0.265c0.25-0.061,0.471-0.271,0.63-0.556   c0.159-0.287,0.261-0.648,0.271-1.025c0.014-0.378-0.062-0.701-0.203-0.924C46.919,30.479,46.714,30.359,46.467,30.4z"></path><path d="M7.709,36.718c-0.13-0.203-0.289-0.388-0.458-0.533c-0.169-0.146-0.348-0.254-0.518-0.305   c-0.253-0.074-0.438-0.009-0.536,0.152c-0.004,0.003-0.004,0.008-0.005,0.011c0.427,0.774,0.896,1.521,1.406,2.238   c0.135-0.006,0.243-0.062,0.319-0.158c0.121-0.156,0.159-0.42,0.077-0.754C7.94,37.147,7.839,36.924,7.709,36.718z"></path><path d="M12.468,39.211c0.19-0.188,0.282-0.486,0.224-0.854c-0.039-0.243-0.141-0.485-0.286-0.701   c-0.146-0.22-0.336-0.41-0.548-0.558c-0.213-0.146-0.45-0.245-0.683-0.281c-0.355-0.054-0.64,0.044-0.814,0.241   c-0.175,0.196-0.242,0.492-0.168,0.841c0.048,0.232,0.152,0.46,0.295,0.667c0.142,0.205,0.321,0.393,0.521,0.538   c0.2,0.146,0.421,0.251,0.646,0.299C11.994,39.476,12.278,39.4,12.468,39.211z"></path><path d="M17.053,40.149c0.273,0.018,0.523-0.029,0.734-0.128c0.209-0.099,0.381-0.248,0.493-0.435   c0.113-0.188,0.169-0.413,0.146-0.661c-0.022-0.249-0.12-0.489-0.271-0.702c-0.151-0.215-0.358-0.398-0.596-0.536   c-0.238-0.138-0.509-0.228-0.788-0.249c-0.279-0.021-0.532,0.027-0.744,0.132c-0.208,0.104-0.372,0.264-0.478,0.459   c-0.105,0.194-0.153,0.43-0.125,0.68c0.028,0.251,0.131,0.487,0.282,0.695c0.148,0.208,0.35,0.386,0.581,0.517   C16.519,40.047,16.78,40.131,17.053,40.149z"></path><path d="M23.235,40.419c0.293,0.007,0.565-0.053,0.798-0.159c0.232-0.107,0.427-0.264,0.562-0.455   c0.136-0.189,0.211-0.416,0.207-0.662c-0.006-0.244-0.091-0.479-0.237-0.684c-0.147-0.204-0.354-0.378-0.601-0.504   c-0.246-0.124-0.53-0.199-0.834-0.207c-0.302-0.007-0.581,0.056-0.815,0.169c-0.235,0.112-0.43,0.278-0.558,0.477   c-0.13,0.199-0.196,0.433-0.182,0.677c0.014,0.247,0.107,0.479,0.257,0.677c0.149,0.195,0.354,0.361,0.595,0.479   C22.668,40.343,22.944,40.411,23.235,40.419z"></path><path d="M30.545,37.919c-0.237-0.113-0.517-0.175-0.817-0.169c-0.302,0.008-0.588,0.083-0.834,0.207   c-0.248,0.125-0.453,0.3-0.6,0.503c-0.146,0.205-0.232,0.438-0.236,0.685c-0.006,0.245,0.07,0.473,0.205,0.662   c0.137,0.19,0.33,0.348,0.563,0.454c0.233,0.107,0.505,0.166,0.798,0.158c0.292-0.006,0.568-0.075,0.811-0.192   c0.238-0.116,0.445-0.281,0.596-0.479c0.146-0.198,0.24-0.429,0.255-0.675c0.014-0.247-0.052-0.479-0.183-0.679   C30.974,38.197,30.781,38.033,30.545,37.919z"></path><path d="M36.837,37.576c-0.209-0.104-0.464-0.153-0.743-0.134c-0.278,0.021-0.551,0.11-0.788,0.249   c-0.238,0.139-0.447,0.322-0.598,0.535s-0.25,0.454-0.271,0.702c-0.021,0.247,0.033,0.472,0.146,0.66   c0.113,0.188,0.285,0.336,0.496,0.436c0.209,0.099,0.459,0.146,0.732,0.127c0.272-0.019,0.535-0.1,0.768-0.229   c0.23-0.129,0.434-0.305,0.582-0.513c0.152-0.206,0.252-0.445,0.281-0.696c0.027-0.251-0.02-0.482-0.125-0.679   C37.211,37.839,37.046,37.681,36.837,37.576z"></path><path d="M41.759,36.818c-0.236,0.036-0.472,0.138-0.685,0.282c-0.212,0.146-0.401,0.337-0.548,0.557   c-0.145,0.216-0.246,0.458-0.286,0.701c-0.06,0.366,0.034,0.666,0.225,0.854c0.188,0.188,0.476,0.265,0.812,0.191   c0.228-0.048,0.447-0.152,0.646-0.3c0.2-0.146,0.379-0.331,0.521-0.536c0.143-0.207,0.248-0.435,0.297-0.667   c0.072-0.349,0.005-0.644-0.17-0.84C42.396,36.865,42.11,36.765,41.759,36.818z"></path><path d="M46.196,35.88c-0.168,0.051-0.346,0.157-0.516,0.304c-0.168,0.147-0.328,0.331-0.459,0.534   c-0.13,0.206-0.23,0.43-0.285,0.651c-0.082,0.334-0.043,0.598,0.076,0.754c0.038,0.047,0.082,0.083,0.135,0.108   c0.527-0.746,1.015-1.523,1.451-2.332C46.497,35.844,46.362,35.832,46.196,35.88z"></path><path d="M13.426,42.753c-0.146-0.183-0.331-0.353-0.53-0.491c-0.202-0.138-0.421-0.244-0.637-0.299   c-0.325-0.085-0.577-0.041-0.724,0.092c-0.098,0.088-0.149,0.214-0.146,0.369c0.655,0.562,1.342,1.087,2.057,1.572   c0.056-0.018,0.105-0.041,0.147-0.072c0.156-0.114,0.218-0.323,0.14-0.604C13.681,43.132,13.571,42.938,13.426,42.753z"></path><path d="M18.765,43.396c-0.149-0.163-0.352-0.307-0.58-0.412c-0.229-0.106-0.488-0.176-0.751-0.19   c-0.396-0.023-0.729,0.078-0.945,0.26c-0.216,0.181-0.314,0.438-0.249,0.722c0.042,0.188,0.151,0.365,0.305,0.518   c0.154,0.151,0.35,0.278,0.573,0.372c0.224,0.092,0.471,0.148,0.723,0.162c0.382,0.021,0.705-0.066,0.924-0.226   c0.22-0.16,0.334-0.394,0.285-0.672C19.017,43.741,18.917,43.558,18.765,43.396z"></path><path d="M24.535,44.757c0.256-0.165,0.413-0.4,0.401-0.675c-0.005-0.185-0.087-0.361-0.226-0.519   c-0.137-0.155-0.331-0.29-0.561-0.386c-0.229-0.098-0.494-0.157-0.774-0.161c-0.42-0.008-0.79,0.106-1.045,0.292   c-0.255,0.188-0.395,0.444-0.364,0.72c0.029,0.277,0.223,0.521,0.505,0.693c0.279,0.176,0.65,0.281,1.051,0.289   C23.923,45.017,24.278,44.923,24.535,44.757z"></path><path d="M30.533,43.312c-0.257-0.187-0.625-0.302-1.048-0.294c-0.278,0.006-0.545,0.064-0.773,0.161   c-0.23,0.096-0.424,0.231-0.561,0.387c-0.139,0.156-0.217,0.333-0.225,0.519c-0.011,0.273,0.147,0.509,0.403,0.675   c0.257,0.165,0.612,0.261,1.012,0.254c0.401-0.006,0.771-0.112,1.054-0.287c0.281-0.174,0.474-0.417,0.502-0.692   C30.931,43.756,30.787,43.498,30.533,43.312z"></path><path d="M36.379,43.056c-0.217-0.181-0.548-0.284-0.946-0.26c-0.264,0.015-0.521,0.084-0.75,0.189   c-0.23,0.106-0.432,0.25-0.58,0.412c-0.152,0.162-0.254,0.347-0.285,0.531c-0.047,0.279,0.067,0.514,0.289,0.673   c0.22,0.159,0.543,0.244,0.924,0.227c0.254-0.014,0.501-0.07,0.724-0.163c0.222-0.092,0.421-0.221,0.575-0.371   c0.152-0.151,0.261-0.327,0.304-0.518C36.694,43.495,36.595,43.236,36.379,43.056z"></path><path d="M40.674,41.963c-0.216,0.055-0.437,0.161-0.638,0.301c-0.2,0.138-0.385,0.308-0.53,0.489   c-0.146,0.185-0.253,0.379-0.305,0.567c-0.078,0.279-0.019,0.488,0.138,0.604c0.005,0.003,0.014,0.004,0.018,0.008   c0.754-0.519,1.479-1.079,2.166-1.682c-0.023-0.078-0.066-0.146-0.125-0.196C41.251,41.922,40.996,41.878,40.674,41.963z"></path><path d="M24.713,47.165c-0.253-0.104-0.598-0.175-0.967-0.182c-0.371-0.005-0.693,0.061-0.91,0.157   c-0.217,0.102-0.327,0.233-0.289,0.365c0.018,0.056,0.062,0.105,0.124,0.153c0.626,0.102,1.26,0.179,1.903,0.228   c0.083-0.015,0.161-0.031,0.228-0.052c0.217-0.067,0.348-0.171,0.337-0.301C25.122,47.404,24.964,47.268,24.713,47.165z"></path><path d="M30.035,47.144c-0.218-0.1-0.539-0.161-0.909-0.157c-0.371,0.005-0.716,0.076-0.967,0.181   c-0.252,0.104-0.411,0.237-0.424,0.37c-0.014,0.13,0.119,0.231,0.338,0.3c0.051,0.017,0.107,0.03,0.168,0.042   c0.678-0.056,1.346-0.14,2.005-0.251c0.039-0.037,0.065-0.076,0.079-0.119C30.365,47.375,30.252,47.242,30.035,47.144z"></path></g></g>
</svg>
</g><g opacity="1" transform="rotate(0 193.0993 618.0426)">
<svg width="389.642" height="90" x="193.0993" y="618.0426" version="1.1" preserveAspectRatio="none" viewBox="-0.04 -29.6 129.35999999999999 29.880000000000003">
  <g transform="matrix(1 0 0 1 0 0)" class="companyName"><path id="id-D6z1nYkh5" d="M28.04-22.56L36.24-22.56L30.88 0L20.88 0L18.16-12.72L15.28 0L5.28 0L-0.04-22.56L8.76-22.56L10.64-8.84L13.56-22.56L23.04-22.56L26.12-8.68L28.04-22.56Z M48.84-22.84Q52.24-22.84 54.96-21.44Q57.68-20.04 59.22-17.42Q60.76-14.80 60.76-11.28L60.76-11.28Q60.76-7.76 59.22-5.14Q57.68-2.52 54.96-1.12Q52.24 0.28 48.84 0.28L48.84 0.28Q45.44 0.28 42.72-1.12Q40-2.52 38.46-5.14Q36.92-7.76 36.92-11.28L36.92-11.28Q36.92-14.80 38.46-17.42Q40-20.04 42.72-21.44Q45.44-22.84 48.84-22.84L48.84-22.84ZM48.84-15.16Q47.60-15.16 46.76-14.18Q45.92-13.20 45.92-11.28L45.92-11.28Q45.92-9.36 46.74-8.38Q47.56-7.40 48.84-7.40L48.84-7.40Q50.08-7.40 50.92-8.38Q51.76-9.36 51.76-11.28L51.76-11.28Q51.76-13.20 50.92-14.18Q50.08-15.16 48.84-15.16L48.84-15.16Z M72.44-18.40Q73.80-20.36 75.76-21.54Q77.72-22.72 79.84-22.72L79.84-22.72L79.84-13.24L77.32-13.24Q74.80-13.24 73.62-12.36Q72.44-11.48 72.44-9.24L72.44-9.24L72.44 0L63.56 0L63.56-22.56L72.44-22.56L72.44-18.40Z M107.28 0L96.68 0L91.12-9L91.12 0L82.24 0L82.24-29.60L91.12-29.60L91.12-14.12L96.76-22.56L107.08-22.56L98.64-11.20L107.28 0Z M118.16-22.84Q122.76-22.84 125.50-20.62Q128.24-18.40 128.96-14.76L128.96-14.76L120.68-14.76Q120.16-16.68 117.96-16.68L117.96-16.68Q116.72-16.68 116.72-15.72L116.72-15.72Q116.72-15.04 117.62-14.68Q118.52-14.32 120.48-13.92L120.48-13.92Q123.04-13.44 124.86-12.78Q126.68-12.12 128-10.64Q129.32-9.16 129.32-6.60L129.32-6.60Q129.32-4.60 128.20-3.04Q127.08-1.48 124.92-0.60Q122.76 0.28 119.84 0.28L119.84 0.28Q114.96 0.28 112.08-1.80Q109.20-3.88 108.52-7.80L108.52-7.80L117.04-7.80Q117.28-5.84 119.80-5.84L119.80-5.84Q121.16-5.84 121.16-6.80L121.16-6.80Q121.16-7.56 120.24-7.92Q119.32-8.28 117.28-8.64L117.28-8.64Q114.68-9.16 112.98-9.76Q111.28-10.36 110-11.80Q108.72-13.24 108.72-15.76L108.72-15.76Q108.72-17.80 109.80-19.40Q110.88-21 113-21.92Q115.12-22.84 118.16-22.84L118.16-22.84Z"/></g>
</svg>
</g></svg></svg>