<svg version="1.1" preserveAspectRatio="none" xmlns="http://www.w3.org/2000/svg" width="500" height="500" viewBox="0 0 500 500"><rect width="100%" height="100%" fill="#EFFFE0" fill-opacity="1"/><svg viewBox="322.7966 352.0923 354.4066 342.0181" width="333" height="321.3597808280094" x="83.5px" y="89.3201px" xmlns="http://www.w3.org/2000/svg" xmlns:xlink="http://www.w3.org/1999/xlink" preserveAspectRatio="none"><defs></defs><style>.companyName {fill:#313131;fill-opacity:1;}.icon1 {fill:#313131;fill-opacity:1;}.icon2 {fill:#C2EF7E;fill-opacity:1;}.icon3 {fill:#6B7D3B;fill-opacity:1;}.icon3-str {stroke:#6B7D3B;stroke-opacity:1;}</style><g opacity="1" transform="rotate(0 322.7966 594.1104)">
<svg width="354.4066" height="100" x="322.7966" y="594.1104" version="1.1" preserveAspectRatio="none" viewBox="0.48 -33.2 119.08 33.60000000000001">
  <g transform="matrix(1 0 0 1 0 0)" class="companyName"><path id="id-D6z1nYkh5" d="M17-14.36L11.12 0.40L9.64 0.40L4.44-16.24Q4.08-17.36 3.76-18.04Q3.44-18.72 3-19.12Q2.56-19.52 1.96-19.66Q1.36-19.80 0.48-19.80L0.48-19.80L0.48-21.20L11.08-21.20L11.08-19.80Q9.52-19.80 8.88-19.44Q8.24-19.08 8.24-18.20L8.24-18.20Q8.24-17.80 8.36-17.26Q8.48-16.72 8.68-15.92L8.68-15.92L11.40-6.36L11.56-6.36L17.44-21.20L18.68-21.20L24-6.36L24.16-6.36L26.56-12.84Q27.04-14.16 27.36-15.06Q27.68-15.96 27.86-16.58Q28.04-17.20 28.12-17.60Q28.20-18 28.20-18.36L28.20-18.36Q28.20-19.24 27.68-19.52Q27.16-19.80 25.52-19.80L25.52-19.80L25.52-21.20L33.52-21.20L33.52-19.80Q32.92-19.80 32.50-19.62Q32.08-19.44 31.66-18.92Q31.24-18.40 30.80-17.44Q30.36-16.48 29.72-14.92L29.72-14.92L23.52 0.40L22.04 0.40L17.16-14.36L17-14.36Z M46.40-21.60L46.40-21.60Q48.68-21.60 50.72-20.78Q52.76-19.96 54.30-18.52Q55.84-17.08 56.74-15.10Q57.64-13.12 57.64-10.76L57.64-10.76Q57.64-8.32 56.74-6.28Q55.84-4.24 54.30-2.76Q52.76-1.28 50.72-0.44Q48.68 0.40 46.40 0.40L46.40 0.40Q44.16 0.40 42.14-0.42Q40.12-1.24 38.60-2.72Q37.08-4.20 36.20-6.26Q35.32-8.32 35.32-10.76L35.32-10.76Q35.32-13.12 36.20-15.12Q37.08-17.12 38.60-18.56Q40.12-20 42.14-20.80Q44.16-21.60 46.40-21.60ZM46.40-19.68L46.40-19.68Q44.92-19.68 43.70-19.04Q42.48-18.40 41.62-17.22Q40.76-16.04 40.30-14.38Q39.84-12.72 39.84-10.72L39.84-10.72Q39.84-8.64 40.30-6.96Q40.76-5.28 41.62-4.10Q42.48-2.92 43.68-2.28Q44.88-1.64 46.40-1.64L46.40-1.64Q47.92-1.64 49.16-2.28Q50.40-2.92 51.28-4.12Q52.16-5.32 52.64-7Q53.12-8.68 53.12-10.72L53.12-10.72Q53.12-12.72 52.64-14.36Q52.16-16 51.28-17.18Q50.40-18.36 49.16-19.02Q47.92-19.68 46.40-19.68Z M68.44-7.72L68.44-6.36Q68.44-4.72 68.52-3.76Q68.60-2.80 68.94-2.30Q69.28-1.80 69.92-1.64Q70.56-1.48 71.72-1.40L71.72-1.40L71.72 0L61.08 0L61.08-1.40Q62.24-1.44 62.92-1.62Q63.60-1.80 63.96-2.28Q64.32-2.76 64.42-3.66Q64.52-4.56 64.52-6.08L64.52-6.08L64.52-10.76Q64.52-13.48 64.46-15Q64.40-16.52 64.06-17.24Q63.72-17.96 63-18.10Q62.28-18.24 61-18.24L61-18.24L61-19.64L68-21.16L68.56-16.20L68.72-16.20Q69.24-17.40 70.02-18.40Q70.80-19.40 71.72-20.10Q72.64-20.80 73.64-21.20Q74.64-21.60 75.68-21.60L75.68-21.60Q76.96-21.60 77.70-20.98Q78.44-20.36 78.44-19.32L78.44-19.32Q78.44-18.36 77.84-17.82Q77.24-17.28 76.12-17.28L76.12-17.28Q75.48-17.28 75.04-17.44Q74.60-17.60 74.26-17.78Q73.92-17.96 73.62-18.12Q73.32-18.28 72.96-18.28L72.96-18.28Q71.88-18.28 70.80-16.90Q69.72-15.52 69.12-13.40L69.12-13.40Q68.80-12.24 68.62-10.78Q68.44-9.32 68.44-7.72L68.44-7.72Z M92.56 0L92.56-1.40Q93.88-1.40 94.38-1.52Q94.88-1.64 94.88-1.84L94.88-1.84Q94.84-2.16 94.24-3Q93.64-3.84 92.68-5L92.68-5L88.44-10.12L86.96-8.72L86.96-6.36Q86.96-4.80 87.10-3.86Q87.24-2.92 87.62-2.38Q88-1.84 88.74-1.64Q89.48-1.44 90.68-1.40L90.68-1.40L90.68 0L79.32 0L79.32-1.40Q80.52-1.44 81.26-1.64Q82-1.84 82.42-2.36Q82.84-2.88 83-3.76Q83.16-4.64 83.16-6.08L83.16-6.08L83.16-22.84Q83.16-25.88 83.10-27.44Q83.04-29 82.68-29.56L82.68-29.56Q82.32-30.12 81.48-30.22Q80.64-30.32 79.24-30.32L79.24-30.32L79.24-31.68L86.96-33.20L86.96-11.24L90.68-14.88Q92.48-16.68 93.36-17.54Q94.24-18.40 94.24-18.84L94.24-18.84Q94.24-19.28 93.40-19.54Q92.56-19.80 91-19.80L91-19.80L91-21.20L101.40-21.20L101.40-19.80Q100.64-19.80 100.08-19.72Q99.52-19.64 99.02-19.40Q98.52-19.16 97.96-18.74Q97.40-18.32 96.68-17.68L96.68-17.68L90.92-12.56L98.84-3.60Q99.40-2.92 99.86-2.50Q100.32-2.08 100.78-1.84Q101.24-1.60 101.78-1.50Q102.32-1.40 103.08-1.40L103.08-1.40L103.08 0L92.56 0Z M107.52-1.40L106.72 0L105.84 0L105.84-6.88L106.84-6.88Q108.40-1.24 112.52-1.24L112.52-1.24Q114.12-1.24 115.06-2.02Q116-2.80 116-4.40L116-4.40Q116-5 115.82-5.42Q115.64-5.84 115.14-6.30Q114.64-6.76 113.74-7.36Q112.84-7.96 111.36-8.88L111.36-8.88Q110-9.72 109-10.44Q108-11.16 107.32-11.90Q106.64-12.64 106.30-13.48Q105.96-14.32 105.96-15.44L105.96-15.44Q105.96-16.80 106.42-17.94Q106.88-19.08 107.68-19.88Q108.48-20.68 109.56-21.14Q110.64-21.60 111.92-21.60L111.92-21.60Q113-21.60 114.16-21.26Q115.32-20.92 116.20-20.36L116.20-20.36L117-21.20L117.76-21.20L117.76-15.44L116.72-15.44Q115.84-17.88 114.80-18.92Q113.76-19.96 112.24-19.96L112.24-19.96Q110.88-19.96 110.06-19.24Q109.24-18.52 109.24-17.24L109.24-17.24Q109.24-16.56 109.46-16.06Q109.68-15.56 110.16-15.08Q110.64-14.60 111.38-14.10Q112.12-13.60 113.16-12.96L113.16-12.96Q114.88-11.88 116.10-11.04Q117.32-10.20 118.08-9.38Q118.84-8.56 119.20-7.68Q119.56-6.80 119.56-5.68L119.56-5.68Q119.56-2.84 117.72-1.22Q115.88 0.40 112.88 0.40L112.88 0.40Q109.76 0.40 107.52-1.40L107.52-1.40Z"/></g>
</svg>
</g><g opacity="1" transform="rotate(0 429.1186 352.0923)">
<svg width="141.7626" height="202.0181" x="429.1186" y="352.0923" version="1.1" preserveAspectRatio="none" viewBox="20.551998138427734 8.03600025177002 58.89500045776367 83.92799377441406">
  <g transform="matrix(1 0 0 1 0 0)" class="icon1"><path d="M25.026,67.797l-4.474,2.583v8.599l7.447,4.3l7.447-4.3v-8.599l-4.421-2.552V53.166L47,40.1v36.398l-4.447,2.568v8.599  L50,91.964l7.447-4.299v-8.599L53,76.498v-8.846l10.729-8.776l5.245,4.29v4.661l-4.421,2.552v8.599l7.447,4.3l7.447-4.3v-8.599  l-4.474-2.583v-7.474L68.467,55l6.506-5.322V32.203l4.474-2.583v-8.599L72,16.721l-7.447,4.3v8.599l4.421,2.552v14.661L53,59.9  V23.502l4.447-2.568v-8.599L50,8.036l-7.447,4.299v8.599L47,23.502v8.846l-10.729,8.776l-5.245-4.29v-4.661l4.421-2.552v-8.599  L28,16.721l-7.447,4.3v8.599l4.474,2.583v7.474L31.533,45l-6.506,5.322V67.797z M73.447,75.514L72,76.35l-1.447-0.835v-1.671  L72,73.008l1.447,0.835V75.514z M70.553,24.486L72,23.65l1.447,0.835v1.671L72,26.992l-1.447-0.835V24.486z M51.447,84.201  L50,85.036l-1.447-0.835V82.53L50,81.694l1.447,0.835V84.201z M48.553,15.799L50,14.964l1.447,0.835v1.671L50,18.306l-1.447-0.835  V15.799z M26.553,24.486L28,23.65l1.447,0.835v1.671L28,26.992l-1.447-0.835V24.486z M29.447,75.514L28,76.35l-1.447-0.835v-1.671  L28,73.008l1.447,0.835V75.514z"></path></g>
</svg>
</g></svg></svg>