<svg version="1.1" preserveAspectRatio="none" xmlns="http://www.w3.org/2000/svg" width="500" height="500" viewBox="0 0 500 500"><rect width="100%" height="100%" fill="#FFFFFF" fill-opacity="1"/><svg viewBox="98.9109 291.3118 388.105 354.0635" width="333" height="303.7918746215586" x="83.5px" y="98.1041px" xmlns="http://www.w3.org/2000/svg" xmlns:xlink="http://www.w3.org/1999/xlink" preserveAspectRatio="none"><defs></defs><style>.companyName {fill:#1C1C1C;fill-opacity:1;}.icon1 {fill:#1C1C1C;fill-opacity:1;}.icon2 {fill:#BAAE57;fill-opacity:1;}.icon3 {fill:#E192BB;fill-opacity:1;}.icon3-str {stroke:#E192BB;stroke-opacity:1;}</style><g opacity="1" transform="rotate(0 98.9109 555.3753)">
<svg width="388.105" height="90" x="98.9109" y="555.3753" version="1.1" preserveAspectRatio="none" viewBox="0.4 -26.8 117.63999999999999 27.28">
  <g transform="matrix(1 0 0 1 0 0)" class="companyName"><path id="id-D6z1nYkh5" d="M2.28-17.60L0.40-17.60L0.40-18.40L11.20-18.40L11.20-17.60L9.08-17.60L13.40-7.92L16-14.44L14.68-17.60L13.20-17.60L13.20-18.40L23.20-18.40L23.20-17.60L21.44-17.60L25.76-7.92L29.48-17.60L26.28-17.60L26.28-18.40L32.80-18.40L32.80-17.60L30.40-17.60L23.64 0L22.80 0L16.48-13.24L11.24 0L10.40 0L2.28-17.60Z M41.40-2.42Q42.28-0.40 44.44-0.40Q46.60-0.40 47.52-2.44Q48.44-4.48 48.44-9.18Q48.44-13.88 47.52-15.94Q46.60-18 44.44-18Q42.28-18 41.40-15.94Q40.52-13.88 40.52-9.16Q40.52-4.44 41.40-2.42ZM44.36 0.40Q40.56 0.40 37.48-2.08Q34.40-4.56 34.40-9.12L34.40-9.12Q34.40-11.56 35.30-13.48Q36.20-15.40 37.70-16.52Q39.20-17.64 40.92-18.22Q42.64-18.80 44.44-18.80Q46.24-18.80 47.98-18.22Q49.72-17.64 51.22-16.52Q52.72-15.40 53.64-13.48Q54.56-11.56 54.56-9.16Q54.56-6.76 53.64-4.88Q52.72-3 51.20-1.88L51.20-1.88Q48.16 0.40 44.36 0.40Z M67.36-0.80L67.36 0L57.36 0L57.36-0.80L59.36-0.80L59.36-17.60L57.36-17.60L57.36-18.40L65.36-18.40L65.36-13.64Q65.72-15.60 66.66-16.84Q67.60-18.08 68.74-18.48Q69.88-18.88 70.94-18.88Q72-18.88 72.98-18.50Q73.96-18.12 74.44-16.98Q74.92-15.84 74.48-14.70Q74.04-13.56 72.94-13.08Q71.84-12.60 70.92-12.96Q70-13.32 69.60-13.94Q69.20-14.56 69.04-15.12L69.04-15.12Q68.64-16.60 67.96-16.60L67.96-16.60Q67.20-16.60 66.28-13.98Q65.36-11.36 65.36-8.44L65.36-8.44L65.36-0.80L67.36-0.80Z M99.40-0.80L99.40-0.80L99.40 0Q93.96 0 91.86-0.78Q89.76-1.56 87.72-4.68L87.72-4.68L85.20-8.56L84.68-8.08L84.68-0.80L86.68-0.80L86.68 0L76.68 0L76.68-0.80L78.68-0.80L78.68-26L76.68-26L76.68-26.80L84.68-26.80L84.68-9.28L93.04-17.60L89.80-17.60L89.80-18.40L97.40-18.40L97.40-17.60L94.24-17.60L89.44-12.84L94.24-5.64Q97.48-0.80 99.40-0.80Z M110.20-0.32L110.20-0.32Q114.36-0.32 114.36-2.60L114.36-2.60Q114.36-3.88 112.92-4.70Q111.48-5.52 109.44-6.04Q107.40-6.56 105.42-7.24Q103.44-7.92 102.14-9.40Q100.84-10.88 101.08-13.28Q101.32-15.68 103.54-17.24Q105.76-18.80 109.02-18.80Q112.28-18.80 114.28-17.76Q116.28-16.72 116.52-14.96L116.52-14.96Q116.68-13.88 116.18-12.96Q115.68-12.04 114.54-12Q113.40-11.96 112.66-12.60Q111.92-13.24 111.96-14.08Q112.00-14.92 112.60-15.58Q113.20-16.24 113.20-16.64L113.20-16.64Q113.20-17.32 111.90-17.66Q110.60-18 108.90-18Q107.20-18 106.12-17.24Q105.04-16.48 105.04-15.36Q105.04-14.24 106.38-13.44Q107.72-12.64 109.64-12.14Q111.56-11.64 113.46-11.02Q115.36-10.40 116.70-9.04Q118.04-7.68 118.04-5.60L118.04-5.60Q118.04-2.84 116.08-1.18Q114.12 0.48 110.16 0.48Q106.20 0.48 103.74-0.72Q101.28-1.92 101.04-3.80L101.04-3.80Q100.88-4.88 101.40-5.80Q101.92-6.72 103.04-6.76Q104.16-6.80 104.90-6.16Q105.64-5.52 105.60-4.68Q105.56-3.84 104.96-3.18Q104.36-2.52 104.36-2.12L104.36-2.12Q104.36-1.32 106.22-0.82Q108.08-0.32 110.20-0.32Z"/></g>
</svg>
</g><g opacity="1" transform="rotate(0 195.9372 291.3118)">
<svg width="194.0525" height="224.0635" x="195.9372" y="291.3118" version="1.1" preserveAspectRatio="none" viewBox="22.583999633789062 18.3439998626709 54.832000732421875 63.31199645996094">
  <g transform="matrix(1 0 0 1 0 0)" class="icon1"><path d="M50,18.344L22.584,34.171v31.658L50,81.656l27.416-15.827V34.171L50,18.344z M71.195,35.199l-9.292,5.348l-11.91-6.875  l-12.127,7l-9.27-5.352L50,22.963L71.195,35.199z M49.897,47.77l-10.047,5.782v-9.407l10.093-5.826L49.897,47.77z M49.993,61.713  l-8.138-4.699l10.115-5.821l8.157,4.669L49.993,61.713z M51.916,75.931V65.222l12.22-7.057V43.877l9.28-5.341V63.52L51.916,75.931z"></path></g>
</svg>
</g></svg></svg>